<?xml version="1.0" encoding="UTF-8"?>
<svg width="1200pt" height="1200pt" version="1.1" viewBox="0 0 1200 1200" xmlns="http://www.w3.org/2000/svg">
 <path d="m600 1170c314.4 0 570-255.6 570-570s-255.6-570-570-570-570 255.6-570 570 255.6 570 570 570zm-261.6-742.8c-25.199-25.199-25.199-63.602 0-88.801 25.199-25.199 63.602-25.199 88.801 0l172.8 172.8 172.8-172.8c25.199-25.199 63.602-25.199 88.801 0 25.199 25.199 25.199 63.602 0 88.801l-172.8 172.8 172.8 172.8c25.199 25.199 25.199 63.602 0 88.801-12 12-27.602 18-44.398 18-16.801 0-32.398-6-44.398-18l-172.8-172.8-172.8 172.8c-12 12-27.602 18-44.398 18-16.801 0-32.398-6-44.398-18-25.199-25.199-25.199-63.602 0-88.801l172.8-172.8z" fill="#ff7080"/>
</svg>
